<?xml version="1.0" encoding="utf-8"?>
<!-- Generator: Adobe Illustrator 20.1.0, SVG Export Plug-In . SVG Version: 6.00 Build 0)  -->
<svg version="1.1" id="Layer_1" xmlns="http://www.w3.org/2000/svg" xmlns:xlink="http://www.w3.org/1999/xlink" x="0px" y="0px"
	 viewBox="0 0 820 780" style="enable-background:new 0 0 820 780;" xml:space="preserve">
<style type="text/css">
	.st0{fill:#FFFFFF;stroke:#000000;stroke-miterlimit:10;}
</style>
<path class="st0" d="M820,780c0,0-6.4-117-51.2-156c-44.9-39-205-104-205-104s-102.5-52-51.2-104c20.7-21.1,32.8-59.2,40.2-100.4
	c11.9-0.3,27.8-26.5,36.4-61.5c9.1-37.2,6.7-69.8-5.5-72.8c-0.6-0.2-1.3-0.2-1.9-0.2c-5.6,0-12.1,5.9-18.4,15.8
	c0.4-16.2,0.5-30.8,0.5-40.7C563.8,104,512.5,0,410,0S256.2,104,256.2,156c0,10,0.1,24.6,0.5,40.7c-6.2-9.9-12.7-15.8-18.4-15.8
	c-0.7,0-1.3,0.1-1.9,0.2c-12.2,3.1-14.6,35.7-5.5,72.8c8.7,35.1,24.5,61.3,36.4,61.5c7.4,41.3,19.5,79.4,40.2,100.4
	c51.2,52-51.2,104-51.2,104s-160.1,65-205,104C6.4,663,0,780,0,780H820z"/>
</svg>
